<?xml version="1.0" encoding="utf-8"?>
<!-- Generator: Adobe Illustrator 25.2.1, SVG Export Plug-In . SVG Version: 6.00 Build 0)  -->
<svg version="1.1" id="Layer_1" xmlns="http://www.w3.org/2000/svg" xmlns:xlink="http://www.w3.org/1999/xlink" x="0px" y="0px"
	 viewBox="0 0 400 350" style="enable-background:new 0 0 400 350;" xml:space="preserve">
<style type="text/css">
	.st0{fill:#271D33;}
	.st1{fill:#DB4415;}
	.st2{font-family:'SegoePrint-Bold';}
	.st3{font-size:82.2781px;}
</style>
<polygon class="st0" points="87.24,127.6 15.77,179.66 87.24,228.89 29.97,178.01 "/>
<polygon class="st0" points="277.53,228.89 349,176.82 277.53,127.6 334.8,178.48 "/>
<rect x="248.72" y="120.14" transform="matrix(0.9614 0.2752 -0.2752 0.9614 59.0348 -62.2481)" class="st0" width="5.19" height="118.17"/>
<text transform="matrix(1 0 0 1 63.8203 196.4219)" class="st1 st2 st3">A M</text>
<g>
	<g>
		<path d="M141.52,176.72c-3.7,0-6.27-2.67-6.27-6.58c0-3.7,2.57-6.58,6.27-6.58c3.7,0,6.48,2.88,6.48,6.58
			C148,174.05,145.23,176.72,141.52,176.72z"/>
	</g>
</g>
</svg>
