<svg xmlns="http://www.w3.org/2000/svg" version="1.1" xmlns:xlink="http://www.w3.org/1999/xlink" xmlns:svgjs="http://svgjs.com/svgjs" width="1440" height="560" preserveAspectRatio="none" viewBox="0 0 1440 560"><g mask="url(&quot;#SvgjsMask1002&quot;)" fill="none"><rect width="1440" height="560" x="0" y="0" fill="rgba(39, 29, 51, 1)"></rect><path d="M-73.54 372.22L-73.54 372.22" stroke="#132e65" stroke-width="1.5"></path><path d="M-73.54 372.22L-64.78 511.67" stroke="#132e65" stroke-width="1.5"></path><path d="M-73.54 372.22L91.57 399.83" stroke="#132e65" stroke-width="1.5"></path><path d="M-73.54 372.22L54.2 553.95" stroke="#132e65" stroke-width="1.5"></path><path d="M-73.54 372.22L-60.36 642.03" stroke="#132e65" stroke-width="1.5"></path><path d="M-73.54 372.22L225.44 351.39" stroke="#132e65" stroke-width="1.5"></path><path d="M-73.54 372.22L224.02 489.23" stroke="#132e65" stroke-width="1.5"></path><path d="M-64.78 511.67L-64.78 511.67" stroke="#132e65" stroke-width="1.5"></path><path d="M-64.78 511.67L54.2 553.95" stroke="#132e65" stroke-width="1.5"></path><path d="M-64.78 511.67L-60.36 642.03" stroke="#132e65" stroke-width="1.5"></path><path d="M-60.36 642.03L-60.36 642.03" stroke="#132e65" stroke-width="1.5"></path><path d="M-60.36 642.03L54.2 553.95" stroke="#132e65" stroke-width="1.5"></path><path d="M-60.36 642.03L100.83 661.82" stroke="#132e65" stroke-width="1.5"></path><path d="M-60.36 642.03L91.57 399.83" stroke="#132e65" stroke-width="1.5"></path><path d="M-60.36 642.03L224.02 489.23" stroke="#132e65" stroke-width="1.5"></path><path d="M91.57 399.83L91.57 399.83" stroke="#132e65" stroke-width="1.5"></path><path d="M91.57 399.83L225.44 351.39" stroke="#132e65" stroke-width="1.5"></path><path d="M91.57 399.83L54.2 553.95" stroke="#132e65" stroke-width="1.5"></path><path d="M54.2 553.95L54.2 553.95" stroke="#132e65" stroke-width="1.5"></path><path d="M54.2 553.95L100.83 661.82" stroke="#132e65" stroke-width="1.5"></path><path d="M100.83 661.82L100.83 661.82" stroke="#132e65" stroke-width="1.5"></path><path d="M100.83 661.82L224.02 489.23" stroke="#132e65" stroke-width="1.5"></path><path d="M225.44 351.39L225.44 351.39" stroke="#132e65" stroke-width="1.5"></path><path d="M225.44 351.39L356.04 375.79" stroke="#132e65" stroke-width="1.5"></path><path d="M225.44 351.39L224.02 489.23" stroke="#132e65" stroke-width="1.5"></path><path d="M224.02 489.23L224.02 489.23" stroke="#132e65" stroke-width="1.5"></path><path d="M224.02 489.23L349.59 552.2" stroke="#132e65" stroke-width="1.5"></path><path d="M224.02 489.23L91.57 399.83" stroke="#132e65" stroke-width="1.5"></path><path d="M224.02 489.23L356.04 375.79" stroke="#132e65" stroke-width="1.5"></path><path d="M356.04 375.79L356.04 375.79" stroke="#132e65" stroke-width="1.5"></path><path d="M356.04 375.79L489.49 395.5" stroke="#132e65" stroke-width="1.5"></path><path d="M356.04 375.79L349.59 552.2" stroke="#132e65" stroke-width="1.5"></path><path d="M356.04 375.79L489.06 513.72" stroke="#132e65" stroke-width="1.5"></path><path d="M349.59 552.2L349.59 552.2" stroke="#132e65" stroke-width="1.5"></path><path d="M349.59 552.2L489.06 513.72" stroke="#132e65" stroke-width="1.5"></path><path d="M349.59 552.2L401.09 704.99" stroke="#132e65" stroke-width="1.5"></path><path d="M401.09 704.99L401.09 704.99" stroke="#132e65" stroke-width="1.5"></path><path d="M401.09 704.99L561.27 697.09" stroke="#132e65" stroke-width="1.5"></path><path d="M401.09 704.99L489.06 513.72" stroke="#132e65" stroke-width="1.5"></path><path d="M401.09 704.99L224.02 489.23" stroke="#132e65" stroke-width="1.5"></path><path d="M401.09 704.99L687.34 682.08" stroke="#132e65" stroke-width="1.5"></path><path d="M401.09 704.99L100.83 661.82" stroke="#132e65" stroke-width="1.5"></path><path d="M489.49 395.5L489.49 395.5" stroke="#132e65" stroke-width="1.5"></path><path d="M489.49 395.5L489.06 513.72" stroke="#132e65" stroke-width="1.5"></path><path d="M489.49 395.5L695.37 371.43" stroke="#132e65" stroke-width="1.5"></path><path d="M489.49 395.5L349.59 552.2" stroke="#132e65" stroke-width="1.5"></path><path d="M489.49 395.5L707.31 519.38" stroke="#132e65" stroke-width="1.5"></path><path d="M489.49 395.5L701.98 246.64" stroke="#132e65" stroke-width="1.5"></path><path d="M489.06 513.72L489.06 513.72" stroke="#132e65" stroke-width="1.5"></path><path d="M561.27 697.09L561.27 697.09" stroke="#132e65" stroke-width="1.5"></path><path d="M561.27 697.09L687.34 682.08" stroke="#132e65" stroke-width="1.5"></path><path d="M701.98 246.64L701.98 246.64" stroke="#132e65" stroke-width="1.5"></path><path d="M701.98 246.64L695.37 371.43" stroke="#132e65" stroke-width="1.5"></path><path d="M701.98 246.64L844.9 242.37" stroke="#132e65" stroke-width="1.5"></path><path d="M701.98 246.64L833.86 100.37" stroke="#132e65" stroke-width="1.5"></path><path d="M695.37 371.43L695.37 371.43" stroke="#132e65" stroke-width="1.5"></path><path d="M695.37 371.43L828.15 407.45" stroke="#132e65" stroke-width="1.5"></path><path d="M695.37 371.43L707.31 519.38" stroke="#132e65" stroke-width="1.5"></path><path d="M707.31 519.38L707.31 519.38" stroke="#132e65" stroke-width="1.5"></path><path d="M707.31 519.38L807.51 551.72" stroke="#132e65" stroke-width="1.5"></path><path d="M707.31 519.38L687.34 682.08" stroke="#132e65" stroke-width="1.5"></path><path d="M707.31 519.38L828.15 407.45" stroke="#132e65" stroke-width="1.5"></path><path d="M707.31 519.38L825.68 645.44" stroke="#132e65" stroke-width="1.5"></path><path d="M707.31 519.38L489.06 513.72" stroke="#132e65" stroke-width="1.5"></path><path d="M687.34 682.08L687.34 682.08" stroke="#132e65" stroke-width="1.5"></path><path d="M687.34 682.08L825.68 645.44" stroke="#132e65" stroke-width="1.5"></path><path d="M687.34 682.08L807.51 551.72" stroke="#132e65" stroke-width="1.5"></path><path d="M687.34 682.08L489.06 513.72" stroke="#132e65" stroke-width="1.5"></path><path d="M833.86 100.37L833.86 100.37" stroke="#132e65" stroke-width="1.5"></path><path d="M833.86 100.37L844.9 242.37" stroke="#132e65" stroke-width="1.5"></path><path d="M833.86 100.37L980.48 41.44" stroke="#132e65" stroke-width="1.5"></path><path d="M833.86 100.37L1010.1 190.92" stroke="#132e65" stroke-width="1.5"></path><path d="M833.86 100.37L995.29 -63.22" stroke="#132e65" stroke-width="1.5"></path><path d="M844.9 242.37L844.9 242.37" stroke="#132e65" stroke-width="1.5"></path><path d="M828.15 407.45L828.15 407.45" stroke="#132e65" stroke-width="1.5"></path><path d="M828.15 407.45L807.51 551.72" stroke="#132e65" stroke-width="1.5"></path><path d="M807.51 551.72L807.51 551.72" stroke="#132e65" stroke-width="1.5"></path><path d="M807.51 551.72L825.68 645.44" stroke="#132e65" stroke-width="1.5"></path><path d="M825.68 645.44L825.68 645.44" stroke="#132e65" stroke-width="1.5"></path><path d="M825.68 645.44L978.92 666.55" stroke="#132e65" stroke-width="1.5"></path><path d="M825.68 645.44L980.58 557.36" stroke="#132e65" stroke-width="1.5"></path><path d="M825.68 645.44L828.15 407.45" stroke="#132e65" stroke-width="1.5"></path><path d="M995.29 -63.22L995.29 -63.22" stroke="#132e65" stroke-width="1.5"></path><path d="M995.29 -63.22L980.48 41.44" stroke="#132e65" stroke-width="1.5"></path><path d="M995.29 -63.22L1138.81 77.43" stroke="#132e65" stroke-width="1.5"></path><path d="M980.48 41.44L980.48 41.44" stroke="#132e65" stroke-width="1.5"></path><path d="M980.48 41.44L1010.1 190.92" stroke="#132e65" stroke-width="1.5"></path><path d="M980.48 41.44L1138.81 77.43" stroke="#132e65" stroke-width="1.5"></path><path d="M980.48 41.44L1090.79 239.9" stroke="#132e65" stroke-width="1.5"></path><path d="M980.48 41.44L844.9 242.37" stroke="#132e65" stroke-width="1.5"></path><path d="M1010.1 190.92L1010.1 190.92" stroke="#132e65" stroke-width="1.5"></path><path d="M1010.1 190.92L1090.79 239.9" stroke="#132e65" stroke-width="1.5"></path><path d="M1010.1 190.92L1138.81 77.43" stroke="#132e65" stroke-width="1.5"></path><path d="M1010.1 190.92L844.9 242.37" stroke="#132e65" stroke-width="1.5"></path><path d="M1010.1 190.92L1002.22 387.16" stroke="#132e65" stroke-width="1.5"></path><path d="M1002.22 387.16L1002.22 387.16" stroke="#132e65" stroke-width="1.5"></path><path d="M1002.22 387.16L980.58 557.36" stroke="#132e65" stroke-width="1.5"></path><path d="M1002.22 387.16L1090.79 239.9" stroke="#132e65" stroke-width="1.5"></path><path d="M980.58 557.36L980.58 557.36" stroke="#132e65" stroke-width="1.5"></path><path d="M980.58 557.36L978.92 666.55" stroke="#132e65" stroke-width="1.5"></path><path d="M978.92 666.55L978.92 666.55" stroke="#132e65" stroke-width="1.5"></path><path d="M978.92 666.55L1119.99 691.54" stroke="#132e65" stroke-width="1.5"></path><path d="M978.92 666.55L807.51 551.72" stroke="#132e65" stroke-width="1.5"></path><path d="M978.92 666.55L1142.14 499.53" stroke="#132e65" stroke-width="1.5"></path><path d="M978.92 666.55L1002.22 387.16" stroke="#132e65" stroke-width="1.5"></path><path d="M1138.81 77.43L1138.81 77.43" stroke="#132e65" stroke-width="1.5"></path><path d="M1138.81 77.43L1302.13 101.72" stroke="#132e65" stroke-width="1.5"></path><path d="M1090.79 239.9L1090.79 239.9" stroke="#132e65" stroke-width="1.5"></path><path d="M1090.79 239.9L1138.81 77.43" stroke="#132e65" stroke-width="1.5"></path><path d="M1090.79 239.9L1302.78 200.69" stroke="#132e65" stroke-width="1.5"></path><path d="M1090.79 239.9L1273.22 360.67" stroke="#132e65" stroke-width="1.5"></path><path d="M1142.14 499.53L1142.14 499.53" stroke="#132e65" stroke-width="1.5"></path><path d="M1142.14 499.53L1294.2 539.15" stroke="#132e65" stroke-width="1.5"></path><path d="M1142.14 499.53L980.58 557.36" stroke="#132e65" stroke-width="1.5"></path><path d="M1142.14 499.53L1002.22 387.16" stroke="#132e65" stroke-width="1.5"></path><path d="M1142.14 499.53L1273.22 360.67" stroke="#132e65" stroke-width="1.5"></path><path d="M1119.99 691.54L1119.99 691.54" stroke="#132e65" stroke-width="1.5"></path><path d="M1119.99 691.54L1290.04 661.94" stroke="#132e65" stroke-width="1.5"></path><path d="M1119.99 691.54L1142.14 499.53" stroke="#132e65" stroke-width="1.5"></path><path d="M1119.99 691.54L980.58 557.36" stroke="#132e65" stroke-width="1.5"></path><path d="M1119.99 691.54L1294.2 539.15" stroke="#132e65" stroke-width="1.5"></path><path d="M1293.29 -100.87L1293.29 -100.87" stroke="#132e65" stroke-width="1.5"></path><path d="M1293.29 -100.87L1447.04 -102.26" stroke="#132e65" stroke-width="1.5"></path><path d="M1293.29 -100.87L1302.13 101.72" stroke="#132e65" stroke-width="1.5"></path><path d="M1293.29 -100.87L1138.81 77.43" stroke="#132e65" stroke-width="1.5"></path><path d="M1293.29 -100.87L1438.11 109.32" stroke="#132e65" stroke-width="1.5"></path><path d="M1293.29 -100.87L995.29 -63.22" stroke="#132e65" stroke-width="1.5"></path><path d="M1293.29 -100.87L1302.78 200.69" stroke="#132e65" stroke-width="1.5"></path><path d="M1302.13 101.72L1302.13 101.72" stroke="#132e65" stroke-width="1.5"></path><path d="M1302.13 101.72L1302.78 200.69" stroke="#132e65" stroke-width="1.5"></path><path d="M1302.78 200.69L1302.78 200.69" stroke="#132e65" stroke-width="1.5"></path><path d="M1302.78 200.69L1388.58 210.48" stroke="#132e65" stroke-width="1.5"></path><path d="M1302.78 200.69L1273.22 360.67" stroke="#132e65" stroke-width="1.5"></path><path d="M1273.22 360.67L1273.22 360.67" stroke="#132e65" stroke-width="1.5"></path><path d="M1273.22 360.67L1398.64 398.89" stroke="#132e65" stroke-width="1.5"></path><path d="M1294.2 539.15L1294.2 539.15" stroke="#132e65" stroke-width="1.5"></path><path d="M1294.2 539.15L1388.36 561.75" stroke="#132e65" stroke-width="1.5"></path><path d="M1294.2 539.15L1290.04 661.94" stroke="#132e65" stroke-width="1.5"></path><path d="M1294.2 539.15L1398.64 398.89" stroke="#132e65" stroke-width="1.5"></path><path d="M1294.2 539.15L1273.22 360.67" stroke="#132e65" stroke-width="1.5"></path><path d="M1290.04 661.94L1290.04 661.94" stroke="#132e65" stroke-width="1.5"></path><path d="M1290.04 661.94L1388.36 561.75" stroke="#132e65" stroke-width="1.5"></path><path d="M1290.04 661.94L1142.14 499.53" stroke="#132e65" stroke-width="1.5"></path><path d="M1290.04 661.94L1573.16 646.26" stroke="#132e65" stroke-width="1.5"></path><path d="M1290.04 661.94L1398.64 398.89" stroke="#132e65" stroke-width="1.5"></path><path d="M1447.04 -102.26L1447.04 -102.26" stroke="#132e65" stroke-width="1.5"></path><path d="M1447.04 -102.26L1598.18 -70.53" stroke="#132e65" stroke-width="1.5"></path><path d="M1447.04 -102.26L1438.11 109.32" stroke="#132e65" stroke-width="1.5"></path><path d="M1447.04 -102.26L1540.54 107.91" stroke="#132e65" stroke-width="1.5"></path><path d="M1447.04 -102.26L1302.13 101.72" stroke="#132e65" stroke-width="1.5"></path><path d="M1447.04 -102.26L1388.58 210.48" stroke="#132e65" stroke-width="1.5"></path><path d="M1438.11 109.32L1438.11 109.32" stroke="#132e65" stroke-width="1.5"></path><path d="M1438.11 109.32L1540.54 107.91" stroke="#132e65" stroke-width="1.5"></path><path d="M1438.11 109.32L1388.58 210.48" stroke="#132e65" stroke-width="1.5"></path><path d="M1438.11 109.32L1302.13 101.72" stroke="#132e65" stroke-width="1.5"></path><path d="M1438.11 109.32L1302.78 200.69" stroke="#132e65" stroke-width="1.5"></path><path d="M1388.58 210.48L1388.58 210.48" stroke="#132e65" stroke-width="1.5"></path><path d="M1388.58 210.48L1302.13 101.72" stroke="#132e65" stroke-width="1.5"></path><path d="M1388.58 210.48L1560.53 235.26" stroke="#132e65" stroke-width="1.5"></path><path d="M1398.64 398.89L1398.64 398.89" stroke="#132e65" stroke-width="1.5"></path><path d="M1398.64 398.89L1388.36 561.75" stroke="#132e65" stroke-width="1.5"></path><path d="M1388.36 561.75L1388.36 561.75" stroke="#132e65" stroke-width="1.5"></path><path d="M1388.36 561.75L1573.16 646.26" stroke="#132e65" stroke-width="1.5"></path><path d="M1388.36 561.75L1610.59 547.16" stroke="#132e65" stroke-width="1.5"></path><path d="M1598.18 -70.53L1598.18 -70.53" stroke="#132e65" stroke-width="1.5"></path><path d="M1598.18 -70.53L1540.54 107.91" stroke="#132e65" stroke-width="1.5"></path><path d="M1598.18 -70.53L1438.11 109.32" stroke="#132e65" stroke-width="1.5"></path><path d="M1598.18 -70.53L1293.29 -100.87" stroke="#132e65" stroke-width="1.5"></path><path d="M1598.18 -70.53L1560.53 235.26" stroke="#132e65" stroke-width="1.5"></path><path d="M1598.18 -70.53L1302.13 101.72" stroke="#132e65" stroke-width="1.5"></path><path d="M1540.54 107.91L1540.54 107.91" stroke="#132e65" stroke-width="1.5"></path><path d="M1540.54 107.91L1560.53 235.26" stroke="#132e65" stroke-width="1.5"></path><path d="M1540.54 107.91L1388.58 210.48" stroke="#132e65" stroke-width="1.5"></path><path d="M1560.53 235.26L1560.53 235.26" stroke="#132e65" stroke-width="1.5"></path><path d="M1560.53 235.26L1570.74 398.34" stroke="#132e65" stroke-width="1.5"></path><path d="M1560.53 235.26L1438.11 109.32" stroke="#132e65" stroke-width="1.5"></path><path d="M1560.53 235.26L1398.64 398.89" stroke="#132e65" stroke-width="1.5"></path><path d="M1560.53 235.26L1302.78 200.69" stroke="#132e65" stroke-width="1.5"></path><path d="M1570.74 398.34L1570.74 398.34" stroke="#132e65" stroke-width="1.5"></path><path d="M1570.74 398.34L1610.59 547.16" stroke="#132e65" stroke-width="1.5"></path><path d="M1570.74 398.34L1398.64 398.89" stroke="#132e65" stroke-width="1.5"></path><path d="M1570.74 398.34L1388.36 561.75" stroke="#132e65" stroke-width="1.5"></path><path d="M1610.59 547.16L1610.59 547.16" stroke="#132e65" stroke-width="1.5"></path><path d="M1610.59 547.16L1573.16 646.26" stroke="#132e65" stroke-width="1.5"></path><path d="M1573.16 646.26L1573.16 646.26" stroke="#132e65" stroke-width="1.5"></path><path d="M1573.16 646.26L1570.74 398.34" stroke="#132e65" stroke-width="1.5"></path><circle r="5" cx="-73.54" cy="372.22" fill="#132e65"></circle><circle r="5" cx="-64.78" cy="511.67" fill="#132e65"></circle><circle r="5" cx="-60.36" cy="642.03" fill="#132e65"></circle><circle r="5" cx="91.57" cy="399.83" fill="#132e65"></circle><circle r="5" cx="54.2" cy="553.95" fill="#132e65"></circle><circle r="5" cx="100.83" cy="661.82" fill="#132e65"></circle><circle r="5" cx="225.44" cy="351.39" fill="#132e65"></circle><circle r="5" cx="224.02" cy="489.23" fill="#132e65"></circle><circle r="5" cx="356.04" cy="375.79" fill="#132e65"></circle><circle r="5" cx="349.59" cy="552.2" fill="#132e65"></circle><circle r="5" cx="401.09" cy="704.99" fill="#132e65"></circle><circle r="5" cx="489.49" cy="395.5" fill="#132e65"></circle><circle r="5" cx="489.06" cy="513.72" fill="#132e65"></circle><circle r="5" cx="561.27" cy="697.09" fill="#132e65"></circle><circle r="5" cx="701.98" cy="246.64" fill="#132e65"></circle><circle r="5" cx="695.37" cy="371.43" fill="#132e65"></circle><circle r="5" cx="707.31" cy="519.38" fill="#132e65"></circle><circle r="5" cx="687.34" cy="682.08" fill="#132e65"></circle><circle r="5" cx="833.86" cy="100.37" fill="#132e65"></circle><circle r="5" cx="844.9" cy="242.37" fill="#132e65"></circle><circle r="5" cx="828.15" cy="407.45" fill="#132e65"></circle><circle r="5" cx="807.51" cy="551.72" fill="#132e65"></circle><circle r="5" cx="825.68" cy="645.44" fill="#132e65"></circle><circle r="5" cx="995.29" cy="-63.22" fill="#132e65"></circle><circle r="5" cx="980.48" cy="41.44" fill="#132e65"></circle><circle r="5" cx="1010.1" cy="190.92" fill="#132e65"></circle><circle r="5" cx="1002.22" cy="387.16" fill="#132e65"></circle><circle r="5" cx="980.58" cy="557.36" fill="#132e65"></circle><circle r="5" cx="978.92" cy="666.55" fill="#132e65"></circle><circle r="5" cx="1138.81" cy="77.43" fill="#132e65"></circle><circle r="5" cx="1090.79" cy="239.9" fill="#132e65"></circle><circle r="5" cx="1142.14" cy="499.53" fill="#132e65"></circle><circle r="5" cx="1119.99" cy="691.54" fill="#132e65"></circle><circle r="5" cx="1293.29" cy="-100.87" fill="#132e65"></circle><circle r="5" cx="1302.13" cy="101.72" fill="#132e65"></circle><circle r="5" cx="1302.78" cy="200.69" fill="#132e65"></circle><circle r="5" cx="1273.22" cy="360.67" fill="#132e65"></circle><circle r="5" cx="1294.2" cy="539.15" fill="#132e65"></circle><circle r="5" cx="1290.04" cy="661.94" fill="#132e65"></circle><circle r="5" cx="1447.04" cy="-102.26" fill="#132e65"></circle><circle r="5" cx="1438.11" cy="109.32" fill="#132e65"></circle><circle r="5" cx="1388.58" cy="210.48" fill="#132e65"></circle><circle r="5" cx="1398.64" cy="398.89" fill="#132e65"></circle><circle r="5" cx="1388.36" cy="561.75" fill="#132e65"></circle><circle r="5" cx="1598.18" cy="-70.53" fill="#132e65"></circle><circle r="5" cx="1540.54" cy="107.91" fill="#132e65"></circle><circle r="5" cx="1560.53" cy="235.26" fill="#132e65"></circle><circle r="5" cx="1570.74" cy="398.34" fill="#132e65"></circle><circle r="5" cx="1610.59" cy="547.16" fill="#132e65"></circle><circle r="5" cx="1573.16" cy="646.26" fill="#132e65"></circle><path d="M641.72 525.64L641.72 525.64" stroke="hsl(228.5, 77.2%, 51.5%)" stroke-width="1.5"></path><path d="M641.72 525.64L540.26 525.97" stroke="hsl(228.5, 77.2%, 51.5%)" stroke-width="1.5"></path><path d="M641.72 525.64L662.99 401.99" stroke="hsl(228.5, 77.2%, 51.5%)" stroke-width="1.5"></path><path d="M641.72 525.64L705.44 659.4" stroke="hsl(228.5, 77.2%, 51.5%)" stroke-width="1.5"></path><path d="M1161.55 221.17L1161.55 221.17" stroke="hsl(228.5, 77.2%, 51.5%)" stroke-width="1.5"></path><path d="M1161.55 221.17L1305.76 205.9" stroke="hsl(228.5, 77.2%, 51.5%)" stroke-width="1.5"></path><path d="M1161.55 221.17L1139.05 373.17" stroke="hsl(228.5, 77.2%, 51.5%)" stroke-width="1.5"></path><path d="M1161.55 221.17L1285.27 101.15" stroke="hsl(228.5, 77.2%, 51.5%)" stroke-width="1.5"></path><path d="M1161.55 221.17L1304.34 391.51" stroke="hsl(228.5, 77.2%, 51.5%)" stroke-width="1.5"></path><path d="M1139.62 535.47L1139.62 535.47" stroke="hsl(228.5, 77.2%, 51.5%)" stroke-width="1.5"></path><path d="M1139.62 535.47L1251.8 548.32" stroke="hsl(228.5, 77.2%, 51.5%)" stroke-width="1.5"></path><path d="M1139.62 535.47L1150.84 669.33" stroke="hsl(228.5, 77.2%, 51.5%)" stroke-width="1.5"></path><path d="M1139.62 535.47L990.52 526.24" stroke="hsl(228.5, 77.2%, 51.5%)" stroke-width="1.5"></path><path d="M1139.62 535.47L1139.05 373.17" stroke="hsl(228.5, 77.2%, 51.5%)" stroke-width="1.5"></path><path d="M1139.62 535.47L1269.92 688.83" stroke="hsl(228.5, 77.2%, 51.5%)" stroke-width="1.5"></path><path d="M1269.92 688.83L1269.92 688.83" stroke="hsl(228.5, 77.2%, 51.5%)" stroke-width="1.5"></path><path d="M1269.92 688.83L1150.84 669.33" stroke="hsl(228.5, 77.2%, 51.5%)" stroke-width="1.5"></path><path d="M1269.92 688.83L1251.8 548.32" stroke="hsl(228.5, 77.2%, 51.5%)" stroke-width="1.5"></path><path d="M1269.92 688.83L1461.46 679.62" stroke="hsl(228.5, 77.2%, 51.5%)" stroke-width="1.5"></path><path d="M-42.57 524.93L-42.57 524.93" stroke="hsl(228.5, 77.2%, 51.5%)" stroke-width="1.5"></path><path d="M-42.57 524.93L-78.05 669.28" stroke="hsl(228.5, 77.2%, 51.5%)" stroke-width="1.5"></path><path d="M-42.57 524.93L96.03 700.53" stroke="hsl(228.5, 77.2%, 51.5%)" stroke-width="1.5"></path><path d="M-42.57 524.93L210.23 508.16" stroke="hsl(228.5, 77.2%, 51.5%)" stroke-width="1.5"></path><path d="M-42.57 524.93L259.08 706.04" stroke="hsl(228.5, 77.2%, 51.5%)" stroke-width="1.5"></path><path d="M-42.57 524.93L369.42 525.34" stroke="hsl(228.5, 77.2%, 51.5%)" stroke-width="1.5"></path><path d="M-78.05 669.28L-78.05 669.28" stroke="hsl(228.5, 77.2%, 51.5%)" stroke-width="1.5"></path><path d="M-78.05 669.28L96.03 700.53" stroke="hsl(228.5, 77.2%, 51.5%)" stroke-width="1.5"></path><path d="M-78.05 669.28L210.23 508.16" stroke="hsl(228.5, 77.2%, 51.5%)" stroke-width="1.5"></path><path d="M-78.05 669.28L259.08 706.04" stroke="hsl(228.5, 77.2%, 51.5%)" stroke-width="1.5"></path><path d="M96.03 700.53L96.03 700.53" stroke="hsl(228.5, 77.2%, 51.5%)" stroke-width="1.5"></path><path d="M96.03 700.53L259.08 706.04" stroke="hsl(228.5, 77.2%, 51.5%)" stroke-width="1.5"></path><path d="M210.23 508.16L210.23 508.16" stroke="hsl(228.5, 77.2%, 51.5%)" stroke-width="1.5"></path><path d="M210.23 508.16L369.42 525.34" stroke="hsl(228.5, 77.2%, 51.5%)" stroke-width="1.5"></path><path d="M210.23 508.16L259.08 706.04" stroke="hsl(228.5, 77.2%, 51.5%)" stroke-width="1.5"></path><path d="M210.23 508.16L96.03 700.53" stroke="hsl(228.5, 77.2%, 51.5%)" stroke-width="1.5"></path><path d="M210.23 508.16L370.68 676.4" stroke="hsl(228.5, 77.2%, 51.5%)" stroke-width="1.5"></path><path d="M259.08 706.04L259.08 706.04" stroke="hsl(228.5, 77.2%, 51.5%)" stroke-width="1.5"></path><path d="M259.08 706.04L370.68 676.4" stroke="hsl(228.5, 77.2%, 51.5%)" stroke-width="1.5"></path><path d="M369.42 525.34L369.42 525.34" stroke="hsl(228.5, 77.2%, 51.5%)" stroke-width="1.5"></path><path d="M369.42 525.34L370.68 676.4" stroke="hsl(228.5, 77.2%, 51.5%)" stroke-width="1.5"></path><path d="M370.68 676.4L370.68 676.4" stroke="hsl(228.5, 77.2%, 51.5%)" stroke-width="1.5"></path><path d="M540.26 525.97L540.26 525.97" stroke="hsl(228.5, 77.2%, 51.5%)" stroke-width="1.5"></path><path d="M540.26 525.97L369.42 525.34" stroke="hsl(228.5, 77.2%, 51.5%)" stroke-width="1.5"></path><path d="M540.26 525.97L662.99 401.99" stroke="hsl(228.5, 77.2%, 51.5%)" stroke-width="1.5"></path><path d="M662.99 401.99L662.99 401.99" stroke="hsl(228.5, 77.2%, 51.5%)" stroke-width="1.5"></path><path d="M662.99 401.99L825.42 380.73" stroke="hsl(228.5, 77.2%, 51.5%)" stroke-width="1.5"></path><path d="M705.44 659.4L705.44 659.4" stroke="hsl(228.5, 77.2%, 51.5%)" stroke-width="1.5"></path><path d="M705.44 659.4L814.86 672.39" stroke="hsl(228.5, 77.2%, 51.5%)" stroke-width="1.5"></path><path d="M705.44 659.4L845.8 539.86" stroke="hsl(228.5, 77.2%, 51.5%)" stroke-width="1.5"></path><path d="M705.44 659.4L540.26 525.97" stroke="hsl(228.5, 77.2%, 51.5%)" stroke-width="1.5"></path><path d="M825.42 380.73L825.42 380.73" stroke="hsl(228.5, 77.2%, 51.5%)" stroke-width="1.5"></path><path d="M825.42 380.73L845.8 539.86" stroke="hsl(228.5, 77.2%, 51.5%)" stroke-width="1.5"></path><path d="M825.42 380.73L991.42 365.56" stroke="hsl(228.5, 77.2%, 51.5%)" stroke-width="1.5"></path><path d="M825.42 380.73L990.52 526.24" stroke="hsl(228.5, 77.2%, 51.5%)" stroke-width="1.5"></path><path d="M825.42 380.73L641.72 525.64" stroke="hsl(228.5, 77.2%, 51.5%)" stroke-width="1.5"></path><path d="M845.8 539.86L845.8 539.86" stroke="hsl(228.5, 77.2%, 51.5%)" stroke-width="1.5"></path><path d="M845.8 539.86L814.86 672.39" stroke="hsl(228.5, 77.2%, 51.5%)" stroke-width="1.5"></path><path d="M845.8 539.86L990.52 526.24" stroke="hsl(228.5, 77.2%, 51.5%)" stroke-width="1.5"></path><path d="M814.86 672.39L814.86 672.39" stroke="hsl(228.5, 77.2%, 51.5%)" stroke-width="1.5"></path><path d="M814.86 672.39L988.24 668.54" stroke="hsl(228.5, 77.2%, 51.5%)" stroke-width="1.5"></path><path d="M814.86 672.39L641.72 525.64" stroke="hsl(228.5, 77.2%, 51.5%)" stroke-width="1.5"></path><path d="M814.86 672.39L990.52 526.24" stroke="hsl(228.5, 77.2%, 51.5%)" stroke-width="1.5"></path><path d="M991.42 365.56L991.42 365.56" stroke="hsl(228.5, 77.2%, 51.5%)" stroke-width="1.5"></path><path d="M991.42 365.56L1139.05 373.17" stroke="hsl(228.5, 77.2%, 51.5%)" stroke-width="1.5"></path><path d="M991.42 365.56L990.52 526.24" stroke="hsl(228.5, 77.2%, 51.5%)" stroke-width="1.5"></path><path d="M991.42 365.56L1161.55 221.17" stroke="hsl(228.5, 77.2%, 51.5%)" stroke-width="1.5"></path><path d="M990.52 526.24L990.52 526.24" stroke="hsl(228.5, 77.2%, 51.5%)" stroke-width="1.5"></path><path d="M990.52 526.24L988.24 668.54" stroke="hsl(228.5, 77.2%, 51.5%)" stroke-width="1.5"></path><path d="M988.24 668.54L988.24 668.54" stroke="hsl(228.5, 77.2%, 51.5%)" stroke-width="1.5"></path><path d="M988.24 668.54L1150.84 669.33" stroke="hsl(228.5, 77.2%, 51.5%)" stroke-width="1.5"></path><path d="M988.24 668.54L845.8 539.86" stroke="hsl(228.5, 77.2%, 51.5%)" stroke-width="1.5"></path><path d="M988.24 668.54L1139.62 535.47" stroke="hsl(228.5, 77.2%, 51.5%)" stroke-width="1.5"></path><path d="M1139.05 373.17L1139.05 373.17" stroke="hsl(228.5, 77.2%, 51.5%)" stroke-width="1.5"></path><path d="M1150.84 669.33L1150.84 669.33" stroke="hsl(228.5, 77.2%, 51.5%)" stroke-width="1.5"></path><path d="M1150.84 669.33L1251.8 548.32" stroke="hsl(228.5, 77.2%, 51.5%)" stroke-width="1.5"></path><path d="M1150.84 669.33L990.52 526.24" stroke="hsl(228.5, 77.2%, 51.5%)" stroke-width="1.5"></path><path d="M1278.13 -70.79L1278.13 -70.79" stroke="hsl(228.5, 77.2%, 51.5%)" stroke-width="1.5"></path><path d="M1278.13 -70.79L1427.05 -96.58" stroke="hsl(228.5, 77.2%, 51.5%)" stroke-width="1.5"></path><path d="M1278.13 -70.79L1285.27 101.15" stroke="hsl(228.5, 77.2%, 51.5%)" stroke-width="1.5"></path><path d="M1278.13 -70.79L1408.1 60.2" stroke="hsl(228.5, 77.2%, 51.5%)" stroke-width="1.5"></path><path d="M1278.13 -70.79L1305.76 205.9" stroke="hsl(228.5, 77.2%, 51.5%)" stroke-width="1.5"></path><path d="M1285.27 101.15L1285.27 101.15" stroke="hsl(228.5, 77.2%, 51.5%)" stroke-width="1.5"></path><path d="M1285.27 101.15L1305.76 205.9" stroke="hsl(228.5, 77.2%, 51.5%)" stroke-width="1.5"></path><path d="M1285.27 101.15L1408.1 60.2" stroke="hsl(228.5, 77.2%, 51.5%)" stroke-width="1.5"></path><path d="M1305.76 205.9L1305.76 205.9" stroke="hsl(228.5, 77.2%, 51.5%)" stroke-width="1.5"></path><path d="M1305.76 205.9L1409.47 240.16" stroke="hsl(228.5, 77.2%, 51.5%)" stroke-width="1.5"></path><path d="M1304.34 391.51L1304.34 391.51" stroke="hsl(228.5, 77.2%, 51.5%)" stroke-width="1.5"></path><path d="M1304.34 391.51L1430.23 398.22" stroke="hsl(228.5, 77.2%, 51.5%)" stroke-width="1.5"></path><path d="M1304.34 391.51L1251.8 548.32" stroke="hsl(228.5, 77.2%, 51.5%)" stroke-width="1.5"></path><path d="M1304.34 391.51L1139.05 373.17" stroke="hsl(228.5, 77.2%, 51.5%)" stroke-width="1.5"></path><path d="M1304.34 391.51L1409.47 240.16" stroke="hsl(228.5, 77.2%, 51.5%)" stroke-width="1.5"></path><path d="M1304.34 391.51L1305.76 205.9" stroke="hsl(228.5, 77.2%, 51.5%)" stroke-width="1.5"></path><path d="M1304.34 391.51L1431.71 545.03" stroke="hsl(228.5, 77.2%, 51.5%)" stroke-width="1.5"></path><path d="M1251.8 548.32L1251.8 548.32" stroke="hsl(228.5, 77.2%, 51.5%)" stroke-width="1.5"></path><path d="M1427.05 -96.58L1427.05 -96.58" stroke="hsl(228.5, 77.2%, 51.5%)" stroke-width="1.5"></path><path d="M1427.05 -96.58L1564.98 -106.08" stroke="hsl(228.5, 77.2%, 51.5%)" stroke-width="1.5"></path><path d="M1427.05 -96.58L1408.1 60.2" stroke="hsl(228.5, 77.2%, 51.5%)" stroke-width="1.5"></path><path d="M1427.05 -96.58L1551.46 110.97" stroke="hsl(228.5, 77.2%, 51.5%)" stroke-width="1.5"></path><path d="M1427.05 -96.58L1285.27 101.15" stroke="hsl(228.5, 77.2%, 51.5%)" stroke-width="1.5"></path><path d="M1427.05 -96.58L1305.76 205.9" stroke="hsl(228.5, 77.2%, 51.5%)" stroke-width="1.5"></path><path d="M1408.1 60.2L1408.1 60.2" stroke="hsl(228.5, 77.2%, 51.5%)" stroke-width="1.5"></path><path d="M1408.1 60.2L1551.46 110.97" stroke="hsl(228.5, 77.2%, 51.5%)" stroke-width="1.5"></path><path d="M1409.47 240.16L1409.47 240.16" stroke="hsl(228.5, 77.2%, 51.5%)" stroke-width="1.5"></path><path d="M1409.47 240.16L1430.23 398.22" stroke="hsl(228.5, 77.2%, 51.5%)" stroke-width="1.5"></path><path d="M1430.23 398.22L1430.23 398.22" stroke="hsl(228.5, 77.2%, 51.5%)" stroke-width="1.5"></path><path d="M1430.23 398.22L1541.64 389.83" stroke="hsl(228.5, 77.2%, 51.5%)" stroke-width="1.5"></path><path d="M1430.23 398.22L1431.71 545.03" stroke="hsl(228.5, 77.2%, 51.5%)" stroke-width="1.5"></path><path d="M1430.23 398.22L1573.46 512.3" stroke="hsl(228.5, 77.2%, 51.5%)" stroke-width="1.5"></path><path d="M1431.71 545.03L1431.71 545.03" stroke="hsl(228.5, 77.2%, 51.5%)" stroke-width="1.5"></path><path d="M1431.71 545.03L1461.46 679.62" stroke="hsl(228.5, 77.2%, 51.5%)" stroke-width="1.5"></path><path d="M1431.71 545.03L1573.46 512.3" stroke="hsl(228.5, 77.2%, 51.5%)" stroke-width="1.5"></path><path d="M1431.71 545.03L1552.99 652.51" stroke="hsl(228.5, 77.2%, 51.5%)" stroke-width="1.5"></path><path d="M1431.71 545.03L1251.8 548.32" stroke="hsl(228.5, 77.2%, 51.5%)" stroke-width="1.5"></path><path d="M1461.46 679.62L1461.46 679.62" stroke="hsl(228.5, 77.2%, 51.5%)" stroke-width="1.5"></path><path d="M1461.46 679.62L1552.99 652.51" stroke="hsl(228.5, 77.2%, 51.5%)" stroke-width="1.5"></path><path d="M1564.98 -106.08L1564.98 -106.08" stroke="hsl(228.5, 77.2%, 51.5%)" stroke-width="1.5"></path><path d="M1564.98 -106.08L1551.46 110.97" stroke="hsl(228.5, 77.2%, 51.5%)" stroke-width="1.5"></path><path d="M1551.46 110.97L1551.46 110.97" stroke="hsl(228.5, 77.2%, 51.5%)" stroke-width="1.5"></path><path d="M1551.46 110.97L1588.25 216" stroke="hsl(228.5, 77.2%, 51.5%)" stroke-width="1.5"></path><path d="M1551.46 110.97L1409.47 240.16" stroke="hsl(228.5, 77.2%, 51.5%)" stroke-width="1.5"></path><path d="M1588.25 216L1588.25 216" stroke="hsl(228.5, 77.2%, 51.5%)" stroke-width="1.5"></path><path d="M1588.25 216L1541.64 389.83" stroke="hsl(228.5, 77.2%, 51.5%)" stroke-width="1.5"></path><path d="M1588.25 216L1409.47 240.16" stroke="hsl(228.5, 77.2%, 51.5%)" stroke-width="1.5"></path><path d="M1588.25 216L1408.1 60.2" stroke="hsl(228.5, 77.2%, 51.5%)" stroke-width="1.5"></path><path d="M1541.64 389.83L1541.64 389.83" stroke="hsl(228.5, 77.2%, 51.5%)" stroke-width="1.5"></path><path d="M1541.64 389.83L1573.46 512.3" stroke="hsl(228.5, 77.2%, 51.5%)" stroke-width="1.5"></path><path d="M1573.46 512.3L1573.46 512.3" stroke="hsl(228.5, 77.2%, 51.5%)" stroke-width="1.5"></path><path d="M1573.46 512.3L1552.99 652.51" stroke="hsl(228.5, 77.2%, 51.5%)" stroke-width="1.5"></path><path d="M1552.99 652.51L1552.99 652.51" stroke="hsl(228.5, 77.2%, 51.5%)" stroke-width="1.5"></path><circle r="25" cx="641.72" cy="525.64" fill="url(#SvgjsRadialGradient1003)"></circle><circle r="25" cx="1161.55" cy="221.17" fill="url(#SvgjsRadialGradient1003)"></circle><circle r="25" cx="1139.62" cy="535.47" fill="url(#SvgjsRadialGradient1003)"></circle><circle r="25" cx="1269.92" cy="688.83" fill="url(#SvgjsRadialGradient1003)"></circle><circle r="5" cx="-42.57" cy="524.93" fill="#8b9ad9"></circle><circle r="5" cx="-78.05" cy="669.28" fill="#8b9ad9"></circle><circle r="5" cx="96.03" cy="700.53" fill="#8b9ad9"></circle><circle r="5" cx="210.23" cy="508.16" fill="#8b9ad9"></circle><circle r="5" cx="259.08" cy="706.04" fill="#8b9ad9"></circle><circle r="5" cx="369.42" cy="525.34" fill="#8b9ad9"></circle><circle r="5" cx="370.68" cy="676.4" fill="#8b9ad9"></circle><circle r="5" cx="540.26" cy="525.97" fill="#8b9ad9"></circle><circle r="5" cx="662.99" cy="401.99" fill="#8b9ad9"></circle><circle r="5" cx="705.44" cy="659.4" fill="#8b9ad9"></circle><circle r="5" cx="825.42" cy="380.73" fill="#8b9ad9"></circle><circle r="5" cx="845.8" cy="539.86" fill="#8b9ad9"></circle><circle r="5" cx="814.86" cy="672.39" fill="#8b9ad9"></circle><circle r="5" cx="991.42" cy="365.56" fill="#8b9ad9"></circle><circle r="5" cx="990.52" cy="526.24" fill="#8b9ad9"></circle><circle r="5" cx="988.24" cy="668.54" fill="#8b9ad9"></circle><circle r="5" cx="1139.05" cy="373.17" fill="#8b9ad9"></circle><circle r="5" cx="1150.84" cy="669.33" fill="#8b9ad9"></circle><circle r="5" cx="1278.13" cy="-70.79" fill="#8b9ad9"></circle><circle r="5" cx="1285.27" cy="101.15" fill="#8b9ad9"></circle><circle r="5" cx="1305.76" cy="205.9" fill="#8b9ad9"></circle><circle r="5" cx="1304.34" cy="391.51" fill="#8b9ad9"></circle><circle r="5" cx="1251.8" cy="548.32" fill="#8b9ad9"></circle><circle r="5" cx="1427.05" cy="-96.58" fill="#8b9ad9"></circle><circle r="5" cx="1408.1" cy="60.2" fill="#8b9ad9"></circle><circle r="5" cx="1409.47" cy="240.16" fill="#8b9ad9"></circle><circle r="5" cx="1430.23" cy="398.22" fill="#8b9ad9"></circle><circle r="5" cx="1431.71" cy="545.03" fill="#8b9ad9"></circle><circle r="5" cx="1461.46" cy="679.62" fill="#8b9ad9"></circle><circle r="5" cx="1564.98" cy="-106.08" fill="#8b9ad9"></circle><circle r="5" cx="1551.46" cy="110.97" fill="#8b9ad9"></circle><circle r="5" cx="1588.25" cy="216" fill="#8b9ad9"></circle><circle r="5" cx="1541.64" cy="389.83" fill="#8b9ad9"></circle><circle r="5" cx="1573.46" cy="512.3" fill="#8b9ad9"></circle><circle r="5" cx="1552.99" cy="652.51" fill="#8b9ad9"></circle></g><defs><mask id="SvgjsMask1002"><rect width="1440" height="560" fill="#ffffff"></rect></mask><radialGradient id="SvgjsRadialGradient1003"><stop stop-color="#ffffff" offset="0.1"></stop><stop stop-color="#1735b3" offset="0.2"></stop><stop stop-color="rgba(23, 53, 179, 0)" offset="1"></stop></radialGradient></defs></svg>